<svg width="24" height="24" xmlns="http://www.w3.org/2000/svg">

 <g>
  <title>background</title>
  <rect fill="none" id="canvas_background" height="602" width="802" y="-1" x="-1"/>
 </g>
 <g>
  <title>Layer 1</title>
  <g id="vuesax_linear_eye">
   <g id="eye">
    <path stroke-width="1.5" stroke-linejoin="round" stroke-linecap="round" stroke="#292d32" fill="none" d="m15.579998,11.999998a3.58,3.58 0 1 1 -3.58,-3.58a3.576,3.576 0 0 1 3.58,3.58z" id="Vector"/>
    <path stroke-width="1.5" stroke-linejoin="round" stroke-linecap="round" stroke="#292d32" fill="none" d="m11.999996,20.270001c3.53,0 6.82,-2.08 9.11,-5.68a5.326,5.326 0 0 0 0,-5.19c-2.295,-3.6 -5.58,-5.68 -9.11,-5.68s-6.82,2.08 -9.11,5.68a5.326,5.326 0 0 0 0,5.19c2.29,3.6 5.58,5.68 9.11,5.68z" id="Vector-2"/>
    <path stroke="#292d32" opacity="0" fill="none" transform="rotate(180 36,36) " d="m24,24l24,0l0,24l-24,0l0,-24z" id="Vector-3"/>
   </g>
  </g>
 </g>
</svg>